<?xml version="1.0" encoding="UTF-8" standalone="no"?>
<svg
   xmlns:dc="http://purl.org/dc/elements/1.1/"
   xmlns:cc="http://creativecommons.org/ns#"
   xmlns:rdf="http://www.w3.org/1999/02/22-rdf-syntax-ns#"
   xmlns:svg="http://www.w3.org/2000/svg"
   xmlns="http://www.w3.org/2000/svg"
   xmlns:sodipodi="http://sodipodi.sourceforge.net/DTD/sodipodi-0.dtd"
   xmlns:inkscape="http://www.inkscape.org/namespaces/inkscape"
   width="793.70081"
   height="1122.5197"
   viewBox="0 0 793.70081 1122.5197"
   version="1.1"
   id="svg1076"
   inkscape:version="1.0.1 (0767f8302a, 2020-10-17)"
   sodipodi:docname="logo.svg">
  <defs
     id="defs1070" />
  <sodipodi:namedview
     id="base"
     pagecolor="#ffffff"
     bordercolor="#666666"
     borderopacity="1.0"
     inkscape:pageopacity="0.0"
     inkscape:pageshadow="2"
     inkscape:zoom="15.839192"
     inkscape:cx="217.24547"
     inkscape:cy="512.66585"
     inkscape:document-units="px"
     inkscape:current-layer="layer1"
     inkscape:document-rotation="0"
     showgrid="true"
     units="px"
     inkscape:window-width="2488"
     inkscape:window-height="1529"
     inkscape:window-x="72"
     inkscape:window-y="34"
     inkscape:window-maximized="1">
    <inkscape:grid
       type="xygrid"
       id="grid1639" />
  </sodipodi:namedview>
  <metadata
     id="metadata1073">
    <rdf:RDF>
      <cc:Work
         rdf:about="">
        <dc:format>image/svg+xml</dc:format>
        <dc:type
           rdf:resource="http://purl.org/dc/dcmitype/StillImage" />
        <dc:title></dc:title>
      </cc:Work>
    </rdf:RDF>
  </metadata>
  <g
     inkscape:label="Layer 1"
     inkscape:groupmode="layer"
     id="layer1">
    <path
       style="fill:none;stroke:#000000;stroke-width:1;stroke-linecap:butt;stroke-linejoin:miter;stroke-miterlimit:4;stroke-dasharray:none;stroke-opacity:1"
       d="m 180,510 v -25 h 5 l 5,5 h 2 l 5,-5 h 5 v 25 h -5 v -15 h -1 l -4,4 h -2 l -4,-4 h -1 v 15 z"
       id="path1709"
       sodipodi:nodetypes="ccccccccccccccccc" />
    <path
       style="fill:none;stroke:#000000;stroke-width:1;stroke-linecap:butt;stroke-linejoin:miter;stroke-miterlimit:4;stroke-dasharray:none;stroke-opacity:1"
       d="m 206,510 v -19 -1 l 5,-5 h 5 l 5,5 v 20 h -5 v -20 h -5 v 5 h 5 v 5 h -5 v 10 h -5"
       id="path1713" />
    <path
       style="fill:none;stroke:#000000;stroke-width:1px;stroke-linecap:butt;stroke-linejoin:miter;stroke-opacity:1"
       d="m 225,490 c 0,-1 0,-5 0,-5 h 15 v 5 h -5 v 20 h -5 v -20 z"
       id="path1715" />
    <path
       style="fill:none;stroke:#000000;stroke-width:1px;stroke-linecap:butt;stroke-linejoin:miter;stroke-opacity:1"
       d="m 245,490 c 0,-1 0,-5 0,-5 h 15 v 5 h -5 v 20 h -5 v -20 z"
       id="path1715-5" />
    <path
       style="fill:none;stroke:#000000;stroke-width:1px;stroke-linecap:butt;stroke-linejoin:miter;stroke-opacity:1"
       d="m 180,515 h 5 v 6 7 l 5,5 h 2 l 5,-5 v -13 h 5 v 15 l -10,10 h -2 l -10,-10 z"
       id="path1732"
       sodipodi:nodetypes="cccccccccccccc" />
    <path
       style="fill:none;stroke:#000000;stroke-width:1px;stroke-linecap:butt;stroke-linejoin:miter;stroke-opacity:1"
       d="m 205,515 h 15 v 5 h -10 v 5 h 5 v 5 h -5 v 5 h 10 v 5 h -15 z"
       id="path1734" />
    <path
       style="fill:none;stroke:#000000;stroke-width:1px;stroke-linecap:butt;stroke-linejoin:miter;stroke-opacity:1"
       d="m 223,540 v -25 h 5 l 5,5 h 2 v -5 h 5 v 25 h -5 v -10 l -5,-5 h -2 v 15 h -5"
       id="path1736"
       sodipodi:nodetypes="cccccccccccccc" />
    <path
       style="fill:none;stroke:#000000;stroke-width:1px;stroke-linecap:butt;stroke-linejoin:miter;stroke-opacity:1"
       d="m 243,540 v -25 h 5 l 5,5 h 2 v -5 h 5 v 25 h -5 v -10 l -5,-5 h -2 v 15 h -5"
       id="path1736-9"
       sodipodi:nodetypes="cccccccccccccc" />
  </g>
</svg>
